<svg xmlns="http://www.w3.org/2000/svg" id="CupSilver" width="35.323" height="38.177" viewBox="0 0 35.323 38.177">
    <defs>
        <style>
            .cls-1{fill:gray}
        </style>
    </defs>
    <g id="Grupo_160" transform="translate(0 1.591)">
        <path id="Trazado_275" d="M363.434 38.831a.8.8 0 0 1 0-1.591 7.829 7.829 0 0 0 7.679-7.954v-6.362H364.2a.8.8 0 0 1 0-1.591h7.679a.782.782 0 0 1 .768.8v7.158a9.4 9.4 0 0 1-9.213 9.54z" class="cls-1" transform="translate(-337.325 -21.333)"/>
        <path id="Trazado_276" d="M19.882 38.831a9.4 9.4 0 0 1-9.215-9.544v-7.159a.782.782 0 0 1 .768-.8h7.679a.8.8 0 0 1 0 1.591H12.2v6.363a7.829 7.829 0 0 0 7.679 7.954.8.8 0 0 1 0 1.591z" class="cls-1" transform="translate(-10.667 -21.333)"/>
        <path id="Trazado_277" d="M151.914 308.1l-.413-.439c-1.609-1.715-2.052-6.509-2.086-8.211a.781.781 0 0 0-.768-.779h-3.072a.781.781 0 0 0-.768.778c-.032 1.7-.475 6.493-2.086 8.211l-.413.439c-2.109 2.248-3.644 3.872-3.644 5.684a.782.782 0 0 0 .768.8h15.358a.782.782 0 0 0 .768-.8c.001-1.816-1.535-3.44-3.644-5.683z" class="cls-1" transform="translate(-129.45 -277.988)"/>
    </g>
    <path id="Trazado_278" fill="#9b9b9b" d="M136.531 0H118.1a.782.782 0 0 0-.768.8v12.721a9.989 9.989 0 1 0 19.965 0V.8a.782.782 0 0 0-.766-.8z" transform="translate(-109.654)"/>
</svg>
