<svg xmlns="http://www.w3.org/2000/svg" id="cupGold" width="43.35" height="46.852" viewBox="0 0 43.35 46.852">
    <defs>
        <style>
            .cls-1{fill:#ffa000}
        </style>
    </defs>
    <g id="Grupo_160" transform="translate(0 1.952)">
        <path id="Trazado_275" d="M363.608 42.807a.977.977 0 0 1 0-1.952 9.608 9.608 0 0 0 9.424-9.761v-7.809h-8.482a.977.977 0 0 1 0-1.952h9.424a.96.96 0 0 1 .942.976v8.785a11.53 11.53 0 0 1-11.308 11.713z" class="cls-1" transform="translate(-331.567 -21.333)"/>
        <path id="Trazado_276" d="M21.976 42.807a11.53 11.53 0 0 1-11.309-11.713v-8.785a.96.96 0 0 1 .942-.976h9.424a.977.977 0 0 1 0 1.952h-8.481v7.809a9.608 9.608 0 0 0 9.424 9.761.977.977 0 0 1 0 1.952z" class="cls-1" transform="translate(-10.667 -21.333)"/>
        <path id="Trazado_277" d="M154.925 310.24l-.507-.539c-1.975-2.1-2.518-7.988-2.559-10.077a.959.959 0 0 0-.942-.957h-3.77a.959.959 0 0 0-.942.955c-.04 2.089-.582 7.969-2.56 10.077l-.507.539c-2.588 2.758-4.473 4.752-4.473 6.975a.96.96 0 0 0 .942.976h18.848a.96.96 0 0 0 .942-.976c.003-2.224-1.884-4.213-4.472-6.973z" class="cls-1" transform="translate(-127.357 -273.289)"/>
    </g>
    <path id="Trazado_278" fill="#ffc107" d="M140.893 0h-22.618a.96.96 0 0 0-.942.976v15.618a12.259 12.259 0 1 0 24.5 0V.976a.96.96 0 0 0-.94-.976z" transform="translate(-107.909)"/>
</svg>
