<svg xmlns="http://www.w3.org/2000/svg" id="CupBronze" width="30.803" height="33.291" viewBox="0 0 30.803 33.291">
    <defs>
        <style>
            .cls-1{fill:#da5f00}
        </style>
    </defs>
    <g id="Grupo_160" transform="translate(0 1.387)">
        <path id="Trazado_275" d="M363.336 36.592a.694.694 0 0 1 0-1.387 6.827 6.827 0 0 0 6.7-6.936V22.72h-6.027a.694.694 0 0 1 0-1.387h6.7a.682.682 0 0 1 .67.694v6.242a8.193 8.193 0 0 1-8.043 8.323z" class="cls-1" transform="translate(-340.568 -21.333)"/>
        <path id="Trazado_276" d="M18.7 36.592a8.193 8.193 0 0 1-8.036-8.323v-6.242a.682.682 0 0 1 .67-.694h6.7a.694.694 0 0 1 0 1.387h-6.028v5.549A6.827 6.827 0 0 0 18.7 35.2a.694.694 0 0 1 0 1.387z" class="cls-1" transform="translate(-10.667 -21.333)"/>
        <path id="Trazado_277" d="M150.219 306.89l-.36-.383c-1.4-1.5-1.789-5.676-1.819-7.16a.681.681 0 0 0-.67-.68h-2.679a.681.681 0 0 0-.67.678c-.028 1.484-.414 5.662-1.819 7.16l-.36.383c-1.839 1.96-3.178 3.376-3.178 4.956a.682.682 0 0 0 .67.694h13.393a.682.682 0 0 0 .67-.694c.003-1.579-1.339-2.995-3.178-4.954z" class="cls-1" transform="translate(-130.63 -280.634)"/>
    </g>
    <path id="Trazado_278" fill="#ef7700" d="M134.074 0H118a.682.682 0 0 0-.67.694v11.1a8.711 8.711 0 1 0 17.41 0V.694a.682.682 0 0 0-.666-.694z" transform="translate(-110.637)"/>
</svg>
